# This file uses centimeters as units for non-parametric coordinates.

mtllib block.mtl
g default
v -1.000624 -0.000624 1.000624
v 1.000624 -0.000624 1.000624
v -1.000624 2.000624 1.000624
v 1.000624 2.000624 1.000624
v -1.000624 2.000624 -1.000624
v 1.000624 2.000624 -1.000624
v -1.000624 -0.000624 -1.000624
v 1.000624 -0.000624 -1.000624
vt 0.000977 0.500000
vt 0.000977 0.250488
vt 0.250488 0.250488
vt 0.250488 0.500000
vt 0.749512 0.250488
vt 0.749512 0.500000
vt 0.500000 0.500000
vt 0.500000 0.250488
vt 0.999023 0.250488
vt 0.999023 0.500000
vt 0.500000 0.749512
vt 0.250488 0.749512
vt 0.250488 0.000977
vt 0.500000 0.000977
vn 0.000000 0.000000 1.000000
vn 0.000000 0.000000 1.000000
vn 0.000000 0.000000 1.000000
vn 0.000000 0.000000 1.000000
vn 0.000000 1.000000 0.000000
vn 0.000000 1.000000 0.000000
vn 0.000000 1.000000 0.000000
vn 0.000000 1.000000 0.000000
vn 0.000000 0.000000 -1.000000
vn 0.000000 0.000000 -1.000000
vn 0.000000 0.000000 -1.000000
vn 0.000000 0.000000 -1.000000
vn 0.000000 -1.000000 0.000000
vn 0.000000 -1.000000 0.000000
vn 0.000000 -1.000000 0.000000
vn 0.000000 -1.000000 0.000000
vn 1.000000 0.000000 0.000000
vn 1.000000 0.000000 0.000000
vn 1.000000 0.000000 0.000000
vn 1.000000 0.000000 0.000000
vn -1.000000 0.000000 0.000000
vn -1.000000 0.000000 0.000000
vn -1.000000 0.000000 0.000000
vn -1.000000 0.000000 0.000000
s 1
g pCube1
usemtl lambert2SG
f 1/11/1 2/12/2 3/7/3
f 3/7/3 2/12/2 4/4/4
s 2
f 3/7/5 4/4/6 5/8/7
f 5/8/7 4/4/6 6/3/8
s 3
f 5/8/9 6/3/10 7/14/11
f 7/14/11 6/3/10 8/13/12
s 4
f 7/5/13 8/9/14 1/6/15
f 1/6/15 8/9/14 2/10/16
s 5
f 2/1/17 8/2/18 4/4/19
f 4/4/19 8/2/18 6/3/20
s 6
f 7/5/21 1/6/22 5/8/23
f 5/8/23 1/6/22 3/7/24
