# This file uses centimeters as units for non-parametric coordinates.

mtllib box.mtl
g default
v 0.500000 0.000000 0.250000
v -0.500000 0.000000 0.250000
v 0.500000 1.200000 0.250000
v -0.500000 1.200000 0.250000
v -0.500000 0.000000 -0.250000
v 0.500000 0.000000 -0.250000
v -0.500000 1.200000 -0.250000
v 0.500000 1.200000 -0.250000
v -0.450000 0.030000 -0.200000
v 0.450000 0.030000 -0.200000
v 0.450000 0.030000 0.200000
v -0.450000 0.030000 0.200000
v -0.450000 1.200000 -0.200000
v -0.450000 1.200000 0.200000
v 0.450000 1.200000 0.200000
v 0.450000 1.200000 -0.200000
v -0.450000 1.200000 -0.200000
v 0.450000 1.200000 -0.200000
v 0.450000 1.200000 0.200000
v -0.450000 1.200000 0.200000
v -0.515000 1.075000 -0.265000
v 0.515000 1.075000 -0.265000
v 0.515000 1.075000 0.265000
v -0.515000 1.075000 0.265000
v -0.515000 1.325000 -0.265000
v 0.515000 1.325000 -0.265000
v 0.515000 1.325000 0.265000
v -0.515000 1.325000 0.265000
v 0.500000 1.200000 0.250000
v -0.500000 1.200000 0.250000
v -0.500000 1.200000 -0.250000
v 0.500000 1.200000 -0.250000
v 0.500000 1.075000 0.250000
v -0.500000 1.075000 0.250000
v -0.500000 1.075000 -0.250000
v 0.500000 1.075000 -0.250000
v -0.500000 1.075000 0.250000
v 0.500000 1.075000 0.250000
v 0.500000 1.075000 -0.250000
v -0.500000 1.075000 -0.250000
vt 0.565873 0.947475
vt 0.562826 0.220593
vt 0.908711 0.217118
vt 0.911758 0.944000
vt 0.109254 0.849912
vt 0.111477 0.275426
vt 0.478677 0.277841
vt 0.476455 0.852327
vt -0.343057 0.960261
vt -0.473591 0.960261
vt -0.473591 0.699194
vt -0.343057 0.699194
vt -0.356110 0.947208
vt -0.356110 0.712247
vt -0.460537 0.712247
vt -0.460537 0.947208
vt 0.594354 0.957003
vt 0.593722 0.899491
vt 0.854786 0.898934
vt 0.855418 0.956446
vt 0.486790 0.873432
vt 0.488778 0.566324
vt 0.581748 0.567464
vt 0.579760 0.874572
vt 0.896631 0.889898
vt 0.896772 0.354499
vt 0.964080 0.354516
vt 0.963938 0.889916
vt 0.402323 1.055318
vt 0.506750 1.055318
vt 0.506750 1.290278
vt 0.402323 1.290278
vt 1.171726 0.939350
vt 1.171726 1.244798
vt 0.936766 1.244798
vt 0.936766 0.939350
vt 0.178565 1.062151
vt 0.178565 1.367600
vt 0.074139 1.367600
vt 0.074139 1.062151
vt 0.864626 -0.035405
vt 0.864626 -0.340853
vt 1.099586 -0.340853
vt 1.099586 -0.035405
vt -0.291098 -0.414534
vt -0.291098 -0.109086
vt -0.395524 -0.109086
vt -0.395524 -0.414534
vt 0.841895 0.365113
vt 0.573016 0.361852
vt 0.573807 0.296590
vt 0.842687 0.299851
vt 0.781685 0.347461
vt 0.643435 0.341785
vt 0.646113 0.276573
vt 0.784362 0.282249
vt 0.593604 0.279258
vt 0.862456 0.274210
vt 0.863682 0.339465
vt 0.594830 0.344514
vt 0.643636 0.277348
vt 0.781233 0.291912
vt 0.774363 0.356816
vt 0.636766 0.342252
vt -0.606978 0.195709
vt -0.606978 0.464608
vt -0.745344 0.464608
vt -0.745344 0.195709
vt -0.610894 0.199625
vt -0.741428 0.199625
vt -0.741428 0.460692
vt -0.610894 0.460692
vt 0.485674 0.240683
vt 0.102412 0.238422
vt 0.104840 0.143912
vt 0.488102 0.146173
vt -0.682248 -0.393623
vt -0.682248 -0.654690
vt -0.551715 -0.654690
vt -0.551715 -0.393623
vt 1.134126 0.419935
vt 1.101493 0.419935
vt 1.101493 0.158868
vt 1.134126 0.158868
vt 0.730418 -0.491978
vt 0.763051 -0.491978
vt 0.763051 -0.230911
vt 0.730418 -0.230911
vt 0.756181 1.057817
vt 0.788814 1.057817
vt 0.788814 1.188350
vt 0.756181 1.188350
vt 0.843376 1.033256
vt 0.876009 1.033256
vt 0.876009 1.163790
vt 0.843376 1.163790
vn 0.000000 0.000000 1.000000
vn 0.000000 0.000000 1.000000
vn 0.000000 0.000000 1.000000
vn 0.000000 0.000000 1.000000
vn 0.000000 0.000000 -1.000000
vn 0.000000 0.000000 -1.000000
vn 0.000000 0.000000 -1.000000
vn 0.000000 0.000000 -1.000000
vn 0.000000 1.000000 0.000000
vn 0.000000 1.000000 0.000000
vn 0.000000 1.000000 0.000000
vn 0.000000 1.000000 0.000000
vn 0.000000 1.000000 0.000000
vn 0.000000 1.000000 0.000000
vn 0.000000 1.000000 0.000000
vn 0.000000 1.000000 0.000000
vn 0.000000 1.000000 0.000000
vn 0.000000 1.000000 0.000000
vn 0.000000 -1.000000 0.000000
vn 0.000000 -1.000000 0.000000
vn 0.000000 -1.000000 0.000000
vn 0.000000 -1.000000 0.000000
vn 1.000000 0.000000 0.000000
vn 1.000000 0.000000 0.000000
vn 1.000000 0.000000 0.000000
vn 1.000000 0.000000 0.000000
vn -1.000000 0.000000 0.000000
vn -1.000000 0.000000 0.000000
vn -1.000000 0.000000 0.000000
vn -1.000000 0.000000 0.000000
vn 0.000000 1.000000 0.000000
vn 0.000000 1.000000 0.000000
vn 0.000000 1.000000 0.000000
vn 0.000000 1.000000 0.000000
vn 0.000000 0.000000 1.000000
vn 0.000000 0.000000 1.000000
vn 0.000000 0.000000 1.000000
vn 0.000000 0.000000 1.000000
vn -1.000000 0.000000 0.000000
vn -1.000000 0.000000 0.000000
vn -1.000000 0.000000 0.000000
vn -1.000000 0.000000 0.000000
vn 0.000000 0.000000 -1.000000
vn 0.000000 0.000000 -1.000000
vn 0.000000 0.000000 -1.000000
vn 0.000000 0.000000 -1.000000
vn 1.000000 0.000000 0.000000
vn 1.000000 0.000000 0.000000
vn 1.000000 0.000000 0.000000
vn 1.000000 0.000000 0.000000
vn 0.000000 0.000000 -1.000000
vn 0.000000 0.000000 -1.000000
vn 0.000000 0.000000 -1.000000
vn 0.000000 0.000000 -1.000000
vn 1.000000 0.000000 0.000000
vn 1.000000 0.000000 0.000000
vn 1.000000 0.000000 0.000000
vn 1.000000 0.000000 0.000000
vn 0.000000 0.000000 1.000000
vn 0.000000 0.000000 1.000000
vn 0.000000 0.000000 1.000000
vn 0.000000 0.000000 1.000000
vn -1.000000 0.000000 0.000000
vn -1.000000 0.000000 0.000000
vn -1.000000 0.000000 0.000000
vn -1.000000 0.000000 0.000000
vn 0.000000 -1.000000 0.000000
vn 0.000000 -1.000000 0.000000
vn 0.000000 -1.000000 0.000000
vn 0.000000 -1.000000 0.000000
vn 0.000000 -1.000000 0.000000
vn 0.000000 -1.000000 0.000000
vn 0.000000 -1.000000 0.000000
vn 0.000000 -1.000000 0.000000
vn 0.000000 -1.000000 0.000000
vn 0.000000 -1.000000 0.000000
vn 0.000000 1.000000 0.000000
vn 0.000000 1.000000 0.000000
vn 0.000000 1.000000 0.000000
vn 0.000000 1.000000 0.000000
vn 0.000000 -1.000000 0.000000
vn 0.000000 -1.000000 0.000000
vn 0.000000 -1.000000 0.000000
vn 0.000000 -1.000000 0.000000
vn 0.000000 0.000000 -1.000000
vn 0.000000 0.000000 -1.000000
vn 0.000000 0.000000 -1.000000
vn 0.000000 0.000000 -1.000000
vn 0.000000 0.000000 1.000000
vn 0.000000 0.000000 1.000000
vn 0.000000 0.000000 1.000000
vn 0.000000 0.000000 1.000000
vn -1.000000 0.000000 0.000000
vn -1.000000 0.000000 0.000000
vn -1.000000 0.000000 0.000000
vn -1.000000 0.000000 0.000000
vn 1.000000 0.000000 0.000000
vn 1.000000 0.000000 0.000000
vn 1.000000 0.000000 0.000000
vn 1.000000 0.000000 0.000000
s off
g box:Mesh
usemtl file1SG
f 1/1/1 3/2/2 4/3/3 2/4/4
f 5/5/5 7/6/6 8/7/7 6/8/8
f 7/9/9 4/10/10 3/11/11 8/12/12 7/9/13 13/13/14 16/14/15 15/15/16 14/16/17 13/13/18
f 6/17/19 1/18/20 2/19/21 5/20/22
f 6/21/23 8/22/24 3/23/25 1/24/26
f 2/25/27 4/26/28 7/27/29 5/28/30
f 11/29/31 10/30/32 9/31/33 12/32/34
f 10/33/35 18/34/36 17/35/37 9/36/38
f 11/37/39 19/38/40 18/39/41 10/40/42
f 12/41/43 20/42/44 19/43/45 11/44/46
f 9/45/47 17/46/48 20/47/49 12/48/50
f 22/49/51 21/50/52 25/51/53 26/52/54
f 23/53/55 22/54/56 26/55/57 27/56/58
f 24/57/59 23/58/60 27/59/61 28/60/62
f 21/61/63 24/62/64 28/63/65 25/64/66
f 23/65/67 24/66/68 21/67/69 22/68/70 23/65/71 33/69/72 36/70/73 35/71/74 34/72/75 33/69/76
f 26/73/77 25/74/78 28/75/79 27/76/80
f 31/77/81 32/78/82 29/79/83 30/80/84
f 37/81/85 30/82/86 29/83/87 38/84/88
f 39/85/89 32/86/90 31/87/91 40/88/92
f 38/89/93 29/90/94 32/91/95 39/92/96
f 40/93/97 31/94/98 30/95/99 37/96/100
